# Blender v2.92.0 OBJ File: 'JuiceBox.blend'
# www.blender.org
mtllib JuiceBox2.mtl
o Juice_Cube
v 1.000000 1.460618 -1.170509
v 0.867656 -2.512245 -1.197262
v 0.909164 1.475373 1.246602
v 0.998719 -2.569560 1.291500
v -0.192425 1.456141 -1.151627
v -0.216538 -2.572807 -1.211360
v -0.215871 1.457409 1.291500
v -0.215871 -2.569560 1.291500
v 1.008380 0.801316 -1.189142
v 1.000000 0.116143 -1.130401
v 0.942183 -0.615440 -1.225275
v 0.946835 -1.240129 -1.214214
v 1.000000 -1.900569 -1.211360
v -0.215933 -2.003299 1.283715
v -0.206600 -1.096546 1.208840
v -0.215871 -0.556075 1.291500
v -0.215871 0.115086 1.310335
v -0.162553 0.786247 1.246287
v 0.909164 0.804211 1.178678
v 0.998719 0.115086 1.302891
v 0.974782 -0.548022 1.243749
v 1.007990 -1.096546 1.285166
v 0.958299 -1.882243 1.327854
v -0.162980 0.609100 -1.112707
v -0.142298 0.136006 -1.204185
v -0.116159 -0.471376 -1.188044
v -0.168928 -1.216449 -1.208903
v -0.216538 -1.900569 -1.211360
v -0.216538 -2.572807 0.885836
v 0.924841 1.475694 0.854777
v -0.212629 1.459892 0.895519
v 0.978548 -2.562990 0.888121
v 0.966077 -1.887011 0.916347
v 0.999163 -1.120561 0.880058
v 0.970539 -0.558955 0.843506
v 1.000000 0.116143 0.908519
v 0.926199 0.805553 0.794752
v -0.216590 -1.988608 0.879303
v -0.201040 -1.116723 0.816862
v -0.200267 -0.542363 0.889616
v -0.204504 0.119362 0.902807
v -0.163109 0.759320 0.863882
v -0.210011 1.459406 0.630212
v 0.964177 -2.556414 0.617859
v -0.216583 -1.977198 0.608356
v -0.196878 -1.129647 0.554326
v -0.189367 -0.533163 0.620354
v -0.196443 0.121519 0.629744
v -0.163092 0.739852 0.607720
v -0.216538 -2.572807 0.614043
v 0.934581 1.473740 0.592303
v 0.970473 -1.888768 0.640599
v 0.992382 -1.136057 0.608644
v 0.966864 -0.566275 0.575396
v 1.000000 0.116143 0.644278
v 0.936849 0.805004 0.537643
v 0.124735 1.464579 0.883435
v 0.129465 1.463657 0.618968
v -0.108016 1.461345 0.891771
v -0.104742 1.460724 0.626725
v 0.102113 2.876599 0.761121
v 0.115015 2.845382 0.498776
v -0.130730 2.870822 0.762947
v -0.119270 2.839815 0.499949
vt 0.774866 0.778543
vt 0.803314 0.779842
vt 0.816100 0.780425
vt 0.816100 0.828840
vt 0.678375 0.821992
vt 0.677073 0.774077
vt 0.428186 0.098669
vt 0.425565 0.010697
vt 0.643421 0.011641
vt 0.638462 0.115184
vt 0.072996 0.423899
vt 0.065028 0.505772
vt 0.017120 0.505772
vt 0.026069 0.423652
vt 0.064763 0.011945
vt 0.060673 0.094571
vt 0.010347 0.094509
vt 0.015461 0.010347
vt 0.064404 0.188280
vt 0.014856 0.190718
vt 0.068334 0.256998
vt 0.019398 0.257952
vt 0.059764 0.339446
vt 0.011543 0.339075
vt 0.426301 0.503688
vt 0.427177 0.430869
vt 0.649654 0.422060
vt 0.649450 0.504249
vt 0.434078 0.327260
vt 0.649654 0.338409
vt 0.426203 0.254311
vt 0.647433 0.247300
vt 0.425241 0.174267
vt 0.649541 0.173050
vt 0.682418 0.010347
vt 0.820212 0.012552
vt 0.813659 0.094730
vt 0.682381 0.092520
vt 0.676461 0.421532
vt 0.820228 0.436340
vt 0.820227 0.505685
vt 0.671493 0.505691
vt 0.670348 0.325308
vt 0.819038 0.325284
vt 0.674389 0.258127
vt 0.820220 0.259118
vt 0.671489 0.176938
vt 0.820228 0.176934
vt 0.341993 0.174719
vt 0.350143 0.092540
vt 0.396877 0.096210
vt 0.391844 0.174448
vt 0.344095 0.256913
vt 0.393263 0.255355
vt 0.354069 0.323122
vt 0.401980 0.325599
vt 0.344606 0.434139
vt 0.394052 0.432181
vt 0.343480 0.503479
vt 0.393075 0.503604
vt 0.092070 0.339695
vt 0.104434 0.424065
vt 0.101118 0.256358
vt 0.097598 0.186646
vt 0.094388 0.094612
vt 0.097793 0.013015
vt 0.097123 0.505772
vt 0.344709 0.010347
vt 0.393127 0.010556
vt 0.803234 0.747437
vt 0.816101 0.747990
vt 0.315580 0.425180
vt 0.312680 0.505772
vt 0.319624 0.020204
vt 0.320828 0.094887
vt 0.320535 0.175677
vt 0.321300 0.252063
vt 0.309038 0.341365
vt 0.676202 0.741977
vt 0.774608 0.746207
vt 0.490710 0.574560
vt 0.344596 0.574272
vt 0.341993 0.524942
vt 0.490710 0.524961
vt 0.988366 0.010347
vt 0.989653 0.090971
vt 0.846446 0.114813
vt 0.842567 0.011324
vt 0.989653 0.421320
vt 0.973687 0.496131
vt 0.841172 0.503969
vt 0.840922 0.421785
vt 0.982911 0.340603
vt 0.846486 0.338128
vt 0.982120 0.264250
vt 0.852641 0.246991
vt 0.988829 0.174659
vt 0.849235 0.172768
vt 0.490710 0.607789
vt 0.346340 0.607320
vt 0.490710 0.830960
vt 0.358050 0.829276
vt 0.670348 0.526385
vt 0.816101 0.530151
vt 0.617477 0.524990
vt 0.645941 0.524942
vt 0.645941 0.697628
vt 0.617465 0.697365
vt 0.059690 0.526466
vt 0.088310 0.527804
vt 0.088310 0.560046
vt 0.059869 0.558636
vt 0.596771 0.698240
vt 0.564546 0.695567
vt 0.564481 0.525988
vt 0.596771 0.524942
vt 0.511507 0.527808
vt 0.543787 0.524942
vt 0.543787 0.697977
vt 0.511403 0.697123
vt 0.010354 0.526534
vt 0.038997 0.526466
vt 0.038997 0.694899
vt 0.010347 0.695298
vn -0.0148 0.9999 0.0032
vn -0.9988 -0.0487 -0.0032
vn 0.9991 -0.0030 0.0421
vn 0.9991 0.0395 -0.0151
vn 0.9986 -0.0532 0.0006
vn 0.9984 0.0543 -0.0186
vn 0.9992 -0.0396 -0.0032
vn 0.9923 0.1217 0.0237
vn -1.0000 -0.0000 -0.0000
vn -0.9990 0.0436 -0.0079
vn -0.9985 0.0467 -0.0286
vn -0.9990 -0.0265 -0.0355
vn -0.9998 0.0126 -0.0157
vn 0.0523 -0.0818 0.9953
vn -0.0173 -0.0233 0.9996
vn -0.0538 0.0711 0.9960
vn -0.0117 -0.0383 0.9992
vn 0.0231 -0.0587 0.9980
vn -0.9974 0.0708 -0.0157
vn -0.9994 -0.0024 -0.0334
vn -0.9996 -0.0039 -0.0266
vn -0.9999 0.0135 -0.0062
vn -1.0000 -0.0001 0.0016
vn 0.9946 0.1021 0.0202
vn 0.9989 -0.0454 -0.0063
vn 0.9987 0.0465 -0.0213
vn 0.9993 -0.0363 -0.0032
vn 0.9998 0.0053 -0.0182
vn 0.9992 -0.0007 0.0392
vn -0.9972 -0.0747 -0.0011
vn -0.0133 0.9999 -0.0022
vn 0.0314 0.1378 0.9900
vn 0.9992 0.0058 0.0392
vn 0.9940 -0.1076 -0.0191
vn 0.9997 0.0220 -0.0051
vn 0.9995 0.0245 -0.0204
vn 0.9980 -0.0635 -0.0060
vn 0.9989 0.0423 0.0204
vn -0.9981 0.0585 -0.0171
vn -0.9994 -0.0080 -0.0351
vn -0.9995 0.0104 -0.0284
vn -0.9998 0.0200 -0.0079
vn -1.0000 -0.0001 -0.0000
vn -0.9977 -0.0677 -0.0025
vn -0.0134 0.9999 -0.0058
vn 0.0041 -1.0000 -0.0042
vn -0.0391 -0.0144 -0.9991
vn 0.0064 -0.0116 -0.9999
vn -0.0023 -0.0003 -1.0000
vn -0.0190 0.0078 -0.9998
vn 0.0209 0.0582 -0.9981
vn -0.0032 0.0282 -0.9996
vn 0.0111 -0.9999 -0.0124
vn 0.0341 -0.9993 -0.0130
vn -0.0082 1.0000 -0.0048
vn 0.0200 0.0890 0.9958
vn -0.0249 0.9926 -0.1187
vn 0.9993 0.0161 0.0325
vn -0.9995 -0.0158 -0.0269
vn -0.0174 -0.0893 -0.9959
g Juice_Cube_Material
usemtl Material
s off
f 57/1/1 59/2/1 31/3/1 7/4/1 3/5/1 30/6/1
f 49/7/2 43/8/2 5/9/2 24/10/2
f 37/11/3 30/12/3 3/13/3 19/14/3
f 32/15/4 33/16/4 23/17/4 4/18/4
f 33/16/5 34/19/5 22/20/5 23/17/5
f 34/19/6 35/21/6 21/22/6 22/20/6
f 35/21/7 36/23/7 20/24/7 21/22/7
f 36/23/8 37/11/8 19/14/8 20/24/8
f 50/25/9 45/26/9 28/27/9 6/28/9
f 45/26/10 46/29/10 27/30/10 28/27/10
f 46/29/11 47/31/11 26/32/11 27/30/11
f 47/31/12 48/33/12 25/34/12 26/32/12
f 48/33/13 49/7/13 24/10/13 25/34/13
f 3/35/14 7/36/14 18/37/14 19/38/14
f 23/39/15 14/40/15 8/41/15 4/42/15
f 22/43/16 15/44/16 14/40/16 23/39/16
f 21/45/17 16/46/17 15/44/17 22/43/17
f 20/47/18 17/48/18 16/46/18 21/45/18
f 17/49/19 18/50/19 42/51/19 41/52/19
f 16/53/20 17/49/20 41/52/20 40/54/20
f 15/55/21 16/53/21 40/54/21 39/56/21
f 14/57/22 15/55/22 39/56/22 38/58/22
f 8/59/23 14/57/23 38/58/23 29/60/23
f 55/61/24 56/62/24 37/11/24 36/23/24
f 54/63/25 55/61/25 36/23/25 35/21/25
f 53/64/26 54/63/26 35/21/26 34/19/26
f 52/65/27 53/64/27 34/19/27 33/16/27
f 44/66/28 52/65/28 33/16/28 32/15/28
f 56/62/29 51/67/29 30/12/29 37/11/29
f 18/50/30 7/68/30 31/69/30 42/51/30
f 60/70/31 43/71/31 31/3/31 59/2/31
f 19/38/32 18/37/32 17/48/32 20/47/32
f 9/72/33 1/73/33 51/67/33 56/62/33
f 2/74/34 13/75/34 52/65/34 44/66/34
f 13/75/35 12/76/35 53/64/35 52/65/35
f 12/76/36 11/77/36 54/63/36 53/64/36
f 11/77/37 10/78/37 55/61/37 54/63/37
f 10/78/38 9/72/38 56/62/38 55/61/38
f 41/52/39 42/51/39 49/7/39 48/33/39
f 40/54/40 41/52/40 48/33/40 47/31/40
f 39/56/41 40/54/41 47/31/41 46/29/41
f 38/58/42 39/56/42 46/29/42 45/26/42
f 29/60/43 38/58/43 45/26/43 50/25/43
f 42/51/44 31/69/44 43/8/44 49/7/44
f 51/79/45 58/80/45 57/1/45 30/6/45
f 29/81/46 32/82/46 4/83/46 8/84/46
f 1/85/47 9/86/47 24/87/47 5/88/47
f 13/89/48 2/90/48 6/91/48 28/92/48
f 12/93/49 13/89/49 28/92/49 27/94/49
f 11/95/50 12/93/50 27/94/50 26/96/50
f 10/97/51 11/95/51 26/96/51 25/98/51
f 9/86/52 10/97/52 25/98/52 24/87/52
f 50/99/53 44/100/53 32/82/53 29/81/53
f 6/101/54 2/102/54 44/100/54 50/99/54
f 1/103/55 5/104/55 43/71/55 60/70/55 58/80/55 51/79/55
f 59/105/56 57/106/56 61/107/56 63/108/56
f 62/109/57 64/110/57 63/111/57 61/112/57
f 57/113/58 58/114/58 62/115/58 61/116/58
f 60/117/59 59/118/59 63/119/59 64/120/59
f 58/121/60 60/122/60 64/123/60 62/124/60
